<svg width="24" height="24" viewBox="0 0 24 24" fill="none" xmlns="http://www.w3.org/2000/svg">
<circle cx="12" cy="12" r="12" fill="#63E790"/>
<path d="M8.65765 11.9865C8.65765 12.2072 8.74533 12.4189 8.9014 12.575C9.05747 12.731 9.26914 12.8187 9.48986 12.8187H14.4831C14.7038 12.8187 14.9155 12.731 15.0715 12.575C15.2276 12.4189 15.3153 12.2072 15.3153 11.9865C15.3153 11.7658 15.2276 11.5541 15.0715 11.398C14.9155 11.242 14.7038 11.1543 14.4831 11.1543H9.48986C9.26914 11.1543 9.05747 11.242 8.9014 11.398C8.74533 11.5541 8.65765 11.7658 8.65765 11.9865Z" fill="#F5F5F5"/>
<path d="M9.48981 15.3152H8.00016C7.14496 15.338 6.31198 15.0411 5.66406 14.4824C5.01614 13.9237 4.59986 13.1435 4.49659 12.2943C4.45364 11.8319 4.50788 11.3658 4.65582 10.9256C4.80377 10.4855 5.04215 10.0812 5.35565 9.73874C5.66915 9.39625 6.05083 9.12312 6.47617 8.93692C6.9015 8.75071 7.36109 8.65555 7.8254 8.65754H9.48981C9.71052 8.65754 9.92219 8.56986 10.0783 8.41379C10.2343 8.25772 10.322 8.04605 10.322 7.82534C10.322 7.60462 10.2343 7.39295 10.0783 7.23688C9.92219 7.08081 9.71052 6.99313 9.48981 6.99313H8.00016C6.76661 6.97665 5.5686 7.40628 4.62667 8.20295C3.68473 8.99963 3.06224 10.1097 2.87379 11.3289C2.78013 12.0341 2.83823 12.7512 3.04421 13.4321C3.2502 14.1131 3.59931 14.7421 4.06816 15.2771C4.53701 15.8122 5.11478 16.2409 5.76277 16.5345C6.41075 16.8281 7.114 16.9798 7.8254 16.9796H9.48981C9.71052 16.9796 9.92219 16.8919 10.0783 16.7358C10.2343 16.5798 10.322 16.3681 10.322 16.1474C10.322 15.9267 10.2343 15.715 10.0783 15.5589C9.92219 15.4028 9.71052 15.3152 9.48981 15.3152Z" fill="#F5F5F5"/>
<path d="M21.1408 11.3539C20.9547 10.1194 20.3244 8.99517 19.3683 8.19229C18.4122 7.3894 17.196 6.96303 15.9478 6.9932H14.6912C14.0171 6.9932 13.6509 7.36769 13.6509 7.8254C13.6509 8.04611 13.7386 8.25779 13.8947 8.41386C14.0508 8.56992 14.2624 8.6576 14.4831 8.6576H15.9728C16.828 8.63478 17.661 8.93171 18.3089 9.49037C18.9568 10.049 19.3731 10.8292 19.4764 11.6785C19.5193 12.1408 19.4651 12.607 19.3171 13.0471C19.1692 13.4872 18.9308 13.8915 18.6173 14.234C18.3038 14.5765 17.9221 14.8496 17.4968 15.0358C17.0714 15.2221 16.6119 15.3172 16.1475 15.3152H14.4831C14.2624 15.3152 14.0508 15.4029 13.8947 15.559C13.7386 15.715 13.6509 15.9267 13.6509 16.1474C13.6509 16.3681 13.7386 16.5798 13.8947 16.7359C14.0508 16.892 14.2624 16.9796 14.4831 16.9796H16.1475C16.8601 16.9854 17.5655 16.8386 18.2166 16.549C18.8677 16.2595 19.4492 15.834 19.9222 15.3011C20.3952 14.7682 20.7486 14.1403 20.9588 13.4595C21.169 12.7786 21.231 12.0607 21.1408 11.3539Z" fill="#F5F5F5"/>
</svg>
