<svg width="41" height="41" viewBox="0 0 41 41" fill="none" xmlns="http://www.w3.org/2000/svg">
<path d="M32.2268 18.6575H12.1105L18.2675 11.2623C18.5554 10.9159 18.6939 10.4694 18.6526 10.0209C18.6112 9.57236 18.3934 9.15865 18.047 8.87075C17.7007 8.58285 17.2541 8.44434 16.8056 8.48569C16.3571 8.52704 15.9434 8.74487 15.6555 9.09125L7.17478 19.2681C7.11772 19.349 7.0667 19.4341 7.02213 19.5225C7.02213 19.6073 7.02213 19.6582 6.9034 19.743C6.82652 19.9375 6.78626 20.1445 6.78467 20.3536C6.78626 20.5627 6.82652 20.7697 6.9034 20.9642C6.9034 21.049 6.9034 21.0999 7.02213 21.1847C7.0667 21.2732 7.11772 21.3582 7.17478 21.4391L15.6555 31.616C15.815 31.8074 16.0147 31.9614 16.2404 32.067C16.4661 32.1725 16.7123 32.227 16.9615 32.2266C17.3578 32.2274 17.7419 32.0893 18.047 31.8365C18.2188 31.6941 18.3608 31.5192 18.4648 31.3219C18.5689 31.1245 18.633 30.9086 18.6535 30.6865C18.6739 30.4643 18.6504 30.2403 18.5842 30.0272C18.518 29.8142 18.4103 29.6163 18.2675 29.4449L12.1105 22.0498H32.2268C32.6766 22.0498 33.108 21.8711 33.4261 21.553C33.7442 21.2349 33.9229 20.8035 33.9229 20.3536C33.9229 19.9038 33.7442 19.4724 33.4261 19.1543C33.108 18.8362 32.6766 18.6575 32.2268 18.6575Z" fill="#231F20"/>
</svg>
